<?xml version="1.0" standalone="no"?>
<!DOCTYPE svg PUBLIC "-//W3C//DTD SVG 20010904//EN"
 "http://www.w3.org/TR/2001/REC-SVG-20010904/DTD/svg10.dtd">
<svg version="1.0" xmlns="http://www.w3.org/2000/svg"
 width="200.000000pt" height="200.000000pt" viewBox="0 0 200.000000 200.000000"
 preserveAspectRatio="xMidYMid meet">

<g transform="translate(0.000000,200.000000) scale(0.100000,-0.100000)"
fill="#000000" stroke="none">
<path d="M1190 1309 c-24 -41 -53 -91 -65 -112 l-22 -38 -28 42 c-33 51 -23
61 -130 -127 -43 -74 -81 -136 -85 -139 -4 -2 -13 7 -20 20 -7 14 -16 25 -20
25 -4 0 -49 -59 -100 -131 l-93 -130 -27 43 c-24 38 -41 84 -46 123 0 6 -4 17
-7 25 -3 8 -8 22 -10 30 -4 10 -6 7 -6 -7 -1 -26 -30 -22 -57 8 -9 10 -25 19
-36 19 -16 0 -18 -9 -18 -89 0 -131 -18 -169 -101 -206 l-64 -29 42 -9 43 -8
0 -75 c0 -56 3 -75 13 -71 7 2 12 20 11 44 -1 39 -1 40 30 34 27 -6 31 -11 34
-44 5 -55 24 -45 20 11 -3 47 -3 47 -43 52 -27 3 -40 10 -40 20 0 8 -4 18 -8
21 -5 3 40 26 99 49 104 42 108 43 120 24 42 -62 32 -66 139 67 l98 122 18
-24 c51 -69 41 -74 103 57 32 65 67 140 78 167 11 26 23 47 27 47 3 0 19 -34
34 -76 16 -42 30 -74 32 -72 1 2 32 68 68 147 l65 144 44 -69 c24 -38 68 -108
98 -156 30 -49 58 -88 61 -88 4 0 16 23 28 52 25 60 17 66 100 -80 29 -50 60
-96 69 -101 9 -4 36 -11 60 -15 52 -8 61 -25 -91 176 l-118 157 -28 -31 -27
-30 -101 152 -101 152 -42 -73z m-652 -424 c5 -4 31 -105 27 -105 -2 0 -10 -3
-18 -6 -10 -3 -17 3 -21 20 -3 14 -15 30 -26 36 -13 7 -20 21 -20 41 0 27 2
29 28 23 15 -4 28 -8 30 -9z m-56 -82 c30 -35 28 -49 -9 -67 -20 -9 -38 -15
-40 -12 -2 2 3 18 12 36 9 17 14 38 11 46 -7 20 8 18 26 -3z"/>
<path d="M424 1026 c-20 -15 -14 -43 12 -53 20 -8 47 19 39 39 -9 23 -30 29
-51 14z"/>
<path d="M365 951 c-3 -6 -9 -33 -12 -61 -6 -49 -5 -50 21 -50 23 0 26 4 28
40 1 22 2 48 2 57 1 20 -29 30 -39 14z"/>
<path d="M838 609 c-14 -8 -18 -24 -18 -74 0 -80 18 -86 22 -7 3 57 3 57 36
60 20 2 32 8 29 15 -5 16 -47 20 -69 6z"/>
<path d="M1050 550 c0 -48 4 -61 19 -70 14 -7 22 -7 27 2 4 6 2 14 -4 16 -7 2
-12 25 -12 58 0 41 -4 54 -15 54 -12 0 -15 -13 -15 -60z"/>
<path d="M1330 600 c0 -5 4 -10 9 -10 6 0 13 5 16 10 3 6 -1 10 -9 10 -9 0
-16 -4 -16 -10z"/>
<path d="M1380 540 c0 -40 4 -70 10 -70 6 0 10 30 10 70 0 40 -4 70 -10 70 -6
0 -10 -30 -10 -70z"/>
<path d="M1510 600 c0 -5 5 -10 10 -10 6 0 10 5 10 10 0 6 -4 10 -10 10 -5 0
-10 -4 -10 -10z"/>
<path d="M207 593 c-12 -11 -8 -98 5 -111 18 -18 108 -16 108 3 0 11 -12 15
-45 15 l-45 0 0 40 0 40 45 0 c25 0 45 5 45 10 0 11 -103 14 -113 3z"/>
<path d="M1172 538 c2 -38 8 -63 16 -66 8 -2 12 7 12 27 0 29 2 31 40 31 38 0
40 -2 40 -31 0 -20 4 -29 13 -27 7 3 13 28 15 66 2 51 0 62 -13 62 -9 0 -15
-9 -15 -25 0 -22 -4 -25 -40 -25 -36 0 -40 3 -40 25 0 16 -6 25 -15 25 -13 0
-15 -11 -13 -62z"/>
<path d="M477 564 c-13 -13 -7 -71 7 -84 17 -13 62 -10 59 5 -1 6 -14 11 -28
13 -38 5 -31 46 8 50 15 2 27 -1 27 -7 0 -6 -11 -11 -25 -11 -14 0 -25 -5 -25
-11 0 -6 16 -9 38 -7 32 3 37 6 37 28 0 23 -4 25 -45 28 -25 2 -49 0 -53 -4z"/>
<path d="M596 555 c-12 -32 -6 -64 13 -75 29 -15 61 -12 61 5 0 9 -9 15 -25
15 -20 0 -25 5 -25 25 0 21 5 25 30 25 17 0 30 -4 30 -10 0 -5 -11 -10 -25
-10 -14 0 -25 -5 -25 -11 0 -6 14 -9 33 -7 27 2 32 7 32 28 0 23 -4 25 -46 28
-36 2 -48 -1 -53 -13z"/>
<path d="M727 563 c-11 -10 -8 -93 3 -93 6 0 10 18 10 40 0 38 2 40 30 40 17
0 30 5 30 10 0 11 -63 14 -73 3z"/>
<path d="M850 560 c0 -5 14 -10 30 -10 17 0 30 5 30 10 0 6 -13 10 -30 10 -16
0 -30 -4 -30 -10z"/>
<path d="M920 536 c0 -46 23 -68 69 -64 35 3 36 4 39 51 2 28 -1 47 -7 47 -6
0 -11 -16 -11 -35 0 -32 -2 -35 -30 -35 -28 0 -30 3 -30 35 0 24 -5 35 -15 35
-10 0 -15 -10 -15 -34z"/>
<path d="M1330 519 c0 -66 24 -62 28 4 2 37 0 47 -12 47 -12 0 -16 -12 -16
-51z"/>
<path d="M1429 551 l-24 -19 29 -31 c17 -17 36 -31 45 -31 10 0 6 9 -13 29
l-27 28 27 22 c24 19 25 21 6 21 -11 0 -30 -9 -43 -19z"/>
<path d="M1510 520 c0 -27 5 -50 10 -50 6 0 10 23 10 50 0 28 -4 50 -10 50 -5
0 -10 -22 -10 -50z"/>
<path d="M1554 557 c-9 -24 0 -80 14 -85 8 -2 12 9 12 38 0 39 1 41 28 38 23
-3 27 -8 30 -40 5 -56 24 -46 20 10 l-3 47 -48 3 c-34 2 -49 -1 -53 -11z"/>
<path d="M1692 558 c-17 -17 -15 -53 4 -72 20 -21 64 -21 64 -1 0 9 -9 15 -25
15 -20 0 -25 5 -25 25 0 21 5 25 31 25 30 0 30 -1 27 -47 -3 -41 -6 -48 -25
-51 -36 -5 -27 -24 10 -20 l32 3 0 65 0 65 -40 3 c-23 2 -46 -3 -53 -10z"/>
</g>
</svg>
